<svg xmlns="http://www.w3.org/2000/svg" xmlns:xlink="http://www.w3.org/1999/xlink" version="1.1"
    x="0px" y="0px" viewBox="0 0 100 125" enable-background="new 0 0 100 100" xml:space="preserve"><path fill='#818cf8' d="M79.5,23.431C71.681,17.024,63.848,8.167,58.652,1.865c-0.35-0.425-0.981-0.488-1.407-0.135  c-0.427,0.351-0.487,0.981-0.136,1.408c5.253,6.374,13.184,15.337,21.13,21.846c0.001,0.001,0.003,0.001,0.004,0.002  s0.002,0.003,0.003,0.004c9.855,7.925,7.215,21.84,7.072,22.546c-4.903,16.281-16.084,40.057-20.666,49.529  c-0.24,0.497-0.032,1.096,0.465,1.336c0.141,0.067,0.289,0.1,0.435,0.1c0.372,0,0.729-0.208,0.901-0.564  c4.606-9.522,15.854-33.444,20.794-49.863c0.004-0.013,0-0.025,0.004-0.038c0.003-0.013,0.012-0.023,0.015-0.037  C87.405,47.361,90.54,32.308,79.5,23.431z"/><path fill='#818cf8' d="M27.99,3.375c0.169,0.094,16.824,9.438,21.826,23.685c-1.657,3.176-1.522,6.205-1.509,6.435c0,0,0,0,0,0.001  c0.024,0.496,0.652,12.179,6.31,15.09c0.859,0.442,1.778,0.663,2.75,0.663c1.622,0,3.395-0.615,5.299-1.841  c0.007-0.004,0.011-0.012,0.018-0.017c0.009-0.006,0.02-0.008,0.029-0.015c0.164-0.119,1.553-1.142,3.282-2.761  c0.014,0.134,0.031,0.269,0.062,0.401c0.172,0.762,0.693,1.812,2.205,2.481c0.032,0.014,0.067,0.011,0.101,0.021  c0.034,0.011,0.063,0.035,0.099,0.042c1.059,0.223,2.109,0.297,3.041,0.297c1.806,0,3.163-0.279,3.248-0.297  c0.033-0.007,0.059-0.029,0.09-0.039c0.654-0.179,6.714-2.046,6.714-9.568c0-0.043-0.02-0.08-0.024-0.122  c-0.005-0.041,0.005-0.081-0.006-0.122c-0.555-2.214-1.673-3.802-3.323-4.72c-1.641-0.913-3.438-0.938-4.671-0.795  c0.063-0.747,0.048-1.499-0.075-2.25c-0.735-4.5-4.935-8.013-12.468-10.451C59.953,17.808,54.645,9.39,47.048,1.793  c-0.391-0.391-1.023-0.391-1.414,0s-0.391,1.023,0,1.414c8.257,8.258,13.771,17.536,13.826,17.628  c0.054,0.092,0.123,0.167,0.198,0.235c0.018,0.016,0.038,0.028,0.057,0.042c0.083,0.063,0.172,0.113,0.269,0.148  c0.015,0.005,0.023,0.017,0.038,0.021c6.986,2.196,10.841,5.219,11.457,8.984c0.511,3.119-1.215,6.387-3.365,9.115  c-0.05,0.058-0.165,0.195-0.316,0.395c-2.705,3.307-5.92,5.73-6.23,5.961c-2.396,1.537-4.424,1.899-6.034,1.072  c-3.847-1.978-5.078-10.35-5.228-13.41c0-0.002-0.001-0.004-0.001-0.006c0-0.002,0-0.003,0-0.005  c-0.001-0.029-0.149-2.916,1.472-5.753c0.005-0.008,0.004-0.018,0.009-0.026c0.035-0.065,0.049-0.137,0.069-0.209  c0.015-0.055,0.04-0.108,0.045-0.164c0.006-0.052-0.008-0.105-0.012-0.158c-0.005-0.078-0.005-0.155-0.028-0.229  c-0.002-0.009,0-0.018-0.003-0.026C46.783,11.619,29.683,2.026,28.958,1.625c-0.482-0.268-1.091-0.092-1.359,0.391  S27.506,3.108,27.99,3.375z M69.341,41.055c1.627-1.998,3.096-4.329,3.795-6.777c0.852-0.168,2.618-0.365,4.103,0.467  c1.114,0.625,1.886,1.753,2.308,3.341c-0.072,6.172-5.023,7.457-5.23,7.507c-0.021,0.005-0.034,0.019-0.054,0.025  c-0.438,0.081-2.865,0.485-5.277,0.007c-0.735-0.351-0.913-0.763-0.977-1.046C67.76,43.484,68.726,41.886,69.341,41.055z"/><path fill='#818cf8' d="M77.754,59.086c0.831-2.064,0.521-4.383-0.923-6.891c-0.019-0.032-0.049-0.051-0.07-0.08s-0.03-0.065-0.056-0.093  c-3.298-3.637-6.786-2.48-10.162-1.361c-2.403,0.795-4.885,1.624-7.688,1.052c-0.042-0.009-0.083,0.003-0.125,0  c-0.053-0.003-0.102-0.021-0.156-0.016c-3.958,0.33-6.132,1.604-6.462,3.784c-0.102,0.671,0.005,1.366,0.261,2.064  c-1.194-0.696-2.624-1.227-3.938-0.896c-0.795,0.199-1.834,0.805-2.479,2.466c-0.154,0.135-0.281,0.304-0.33,0.519  c-0.883,3.861,0.8,7.965,1.319,9.098c-2.412,16.524-12.296,27.995-12.396,28.109c-0.363,0.415-0.321,1.047,0.094,1.41  c0.19,0.166,0.425,0.248,0.659,0.248c0.278,0,0.555-0.115,0.752-0.341C36.48,97.671,46.547,86.015,48.97,68.72  c0.005-0.034-0.007-0.065-0.006-0.099c0.003-0.068-0.001-0.135-0.012-0.203c-0.011-0.067-0.029-0.129-0.053-0.192  c-0.012-0.031-0.011-0.065-0.027-0.097c-0.021-0.041-1.984-3.985-1.375-7.615c0.09-0.103,0.163-0.223,0.206-0.362  c0.417-1.359,1.019-1.511,1.217-1.561c1.307-0.332,3.542,1.277,4.659,2.377c2.443,2.812,3.414,5.229,2.884,7.188  c-0.689,2.539-3.778,3.604-3.807,3.614c-0.032,0.011-0.054,0.035-0.084,0.048c-0.062,0.027-0.115,0.059-0.17,0.097  c-0.054,0.038-0.103,0.077-0.147,0.125c-0.043,0.044-0.078,0.092-0.111,0.145c-0.038,0.058-0.069,0.116-0.094,0.182  c-0.012,0.029-0.034,0.052-0.043,0.083c-2.36,8.399-5.541,16.68-9.453,24.609c-0.244,0.495-0.041,1.095,0.455,1.339  c0.142,0.07,0.293,0.104,0.441,0.104c0.369,0,0.724-0.204,0.898-0.558c3.892-7.889,7.064-16.121,9.444-24.474  c1.132-0.487,3.813-1.916,4.597-4.773c0.451-1.646,0.189-3.444-0.771-5.376c0.993,0.676,2.018,1.263,2.989,1.711  C58.5,80.593,51.661,92.482,48.78,96.914c-0.301,0.463-0.17,1.082,0.293,1.383c0.168,0.11,0.357,0.162,0.544,0.162  c0.327,0,0.648-0.16,0.839-0.455c3.729-5.735,10.279-17.71,12.24-33.461c0.003-0.023-0.007-0.045-0.005-0.069  c0.004-0.07-0.005-0.137-0.016-0.206c-0.01-0.062-0.018-0.12-0.038-0.178c-0.021-0.061-0.053-0.114-0.086-0.17  c-0.032-0.056-0.063-0.108-0.105-0.156c-0.041-0.047-0.09-0.083-0.14-0.122c-0.054-0.042-0.106-0.081-0.169-0.111  c-0.022-0.011-0.037-0.03-0.06-0.039c-4.274-1.724-8.307-5.615-7.99-7.71c0.166-1.098,1.783-1.833,4.55-2.079  c0.724,0.134,1.429,0.2,2.11,0.2c2.372,0,4.496-0.704,6.423-1.343c3.236-1.072,5.583-1.843,7.976,0.73  c1.073,1.905,1.33,3.602,0.754,5.041c-1.104,2.762-4.889,3.907-4.927,3.918c-0.043,0.013-0.073,0.042-0.112,0.06  c-0.074,0.032-0.146,0.063-0.21,0.11c-0.044,0.034-0.075,0.077-0.113,0.117c-0.05,0.054-0.101,0.103-0.138,0.167  c-0.033,0.056-0.049,0.117-0.07,0.178c-0.019,0.051-0.05,0.095-0.06,0.15c-2.594,14.373-8.654,27.478-12.035,34.009  c-0.254,0.49-0.063,1.094,0.428,1.348c0.147,0.076,0.305,0.112,0.459,0.112c0.362,0,0.711-0.196,0.889-0.54  c3.388-6.544,9.419-19.594,12.115-33.995C73.441,63.468,76.576,62.013,77.754,59.086z"/><path fill='#818cf8' d="M45.708,51.873c0.003-0.015,0.013-0.025,0.016-0.04c0.139-0.636,3.271-15.681-7.758-24.559c0,0,0-0.001-0.001-0.001  C28.976,19.908,19.984,9.399,14.024,1.88c-0.343-0.433-0.973-0.505-1.405-0.163c-0.433,0.343-0.506,0.972-0.163,1.405  c6.021,7.596,15.114,18.221,24.241,25.698c0.001,0.001,0.003,0.001,0.004,0.002c0.001,0.001,0.002,0.002,0.003,0.003  c9.838,7.911,7.224,21.792,7.073,22.543C39.422,65.831,30.112,86.206,24.947,97.07c-0.237,0.499-0.025,1.096,0.474,1.333  c0.139,0.065,0.285,0.097,0.429,0.097c0.374,0,0.732-0.211,0.904-0.57c5.193-10.925,14.562-31.431,18.952-46.021  C45.708,51.896,45.705,51.885,45.708,51.873z"/> </svg>